<?xml version="1.0" standalone="no"?>
<!DOCTYPE svg PUBLIC "-//W3C//DTD SVG 1.0//EN" "http://www.w3.org/TR/2001/REC-SVG-20010904/DTD/svg10.dtd">
<svg xmlns="http://www.w3.org/2000/svg" xmlns:xlink="http://www.w3.org/1999/xlink" id="body_1" width="345" height="225">

<g transform="matrix(0.5 0 0 0.5 -0 0.31020355)">
    <path transform="matrix(1 0 0 1 -255 -225.6204)"  d="M466.81293 645.7313C 471.48138 635.64777 476.14633 625.4147 478.1724 614.4891C 480.19846 603.5635 479.34808 591.7061 473.54538 582.22974C 467.74268 572.75336 456.31726 566.32733 445.41385 568.46954C 436.45853 570.229 429.2678 577.2822 425.05734 585.37946C 420.8469 593.4767 419.1576 602.6096 417.52 611.588C 416.9908 601.38794 416.4304 591.0237 413.042 581.38824C 409.6536 571.7528 402.98154 562.7736 393.4726 559.0451C 383.96365 555.3166 371.59375 558.2486 366.58197 567.1483C 359.52124 579.6865 368.8835 597.27374 360.76462 609.1541C 359.37198 597.2371 346.9099 587.8218 335.06583 589.7382C 323.22174 591.65466 314.36475 604.5195 316.80124 616.26764C 318.251 623.2581 323.02054 629.204 328.7228 633.49963C 334.42508 637.7953 341.057 642.774 347.61755 645.58966L347.61755 645.58966L466.81293 645.7313z" stroke="none" fill="#F2F2F2" fill-rule="nonzero" />
    <path transform="matrix(1 0 0 1 -255 -225.6204)"  d="M323.01987 598.15784C 332.42813 601.44635 341.92285 604.7721 350.51212 609.9134C 358.2101 614.52124 365.06512 620.7253 369.39444 628.6703C 371.76648 632.9326 373.17487 637.66327 373.52026 642.5289C 373.58276 643.54645 375.17484 643.5536 375.1119 642.5289C 374.5553 633.4679 370.13953 625.17584 364.0249 618.6181C 357.3209 611.4283 348.63333 606.5177 339.66382 602.7077C 334.3456 600.4487 328.89523 598.52875 323.44302 596.62305C 322.47415 596.28436 322.05762 597.8215 323.01993 598.15784L323.01993 598.15784L323.01987 598.15784z" stroke="none" fill="#FFFFFF" fill-rule="nonzero" />
    <path transform="matrix(1 0 0 1 -255 -225.6204)"  d="M377.28745 560.6249C 383.0677 570.2547 387.6965 580.53033 391.07858 591.2405C 394.4674 601.9468 396.60205 613.0104 397.43958 624.2089C 397.90314 630.4777 397.95374 636.7703 397.5911 643.0458C 397.53204 644.06903 399.12387 644.0657 399.18274 643.0458C 399.82486 631.73126 399.14008 620.38043 397.14243 609.2253C 395.1479 598.0713 391.86975 587.18555 387.3734 576.78503C 384.84952 570.94324 381.93927 565.2763 378.6618 559.82153C 378.43268 559.4585 377.95703 559.34235 377.5864 559.559C 377.2158 559.7757 377.08356 560.2471 377.28748 560.6249L377.28748 560.6249L377.28745 560.6249z" stroke="none" fill="#FFFFFF" fill-rule="nonzero" />
    <path transform="matrix(1 0 0 1 -255 -225.6204)"  d="M455.188 569.76746C 447.01193 588.13763 441.25824 607.49255 438.0715 627.34595C 437.17667 632.92255 436.48404 638.5265 435.9936 644.1578C 435.9046 645.178 437.49677 645.17206 437.58524 644.1578C 439.31836 624.34875 443.59964 604.8461 450.32312 586.1325C 452.21234 580.8711 454.29208 575.6839 456.56232 570.5708C 456.9743 569.6429 455.6033 568.83215 455.188 569.76746z" stroke="none" fill="#FFFFFF" fill-rule="nonzero" />
    <path transform="matrix(0.012937498 0.99991626 -0.99991626 0.012937498 1112.5953 -285.4804)"  d="M709.1763 639.47815L719.0586 639.47815L719.0586 686.0664L709.1763 686.0664z" stroke="none" fill="#E6E6E6" fill-rule="nonzero" />
    <path transform="matrix(1 0 0 1 -255 -225.6204)"  d="M754.02655 669.6162L747.37396 669.5968L743.2616 662.2597L747.7066 654.9473L753.8877 654.9653C 750.71387 650.9279 745.3226 649.35803 740.4774 651.06024C 735.63226 652.76245 732.40753 657.3594 732.4562 662.4946C 732.5049 667.6299 735.8162 672.1648 740.69275 673.77484C 745.56934 675.3849 750.9299 673.713 754.0266 669.6163L754.0266 669.6163L754.02655 669.6162z" stroke="none" fill="#E6E6E6" fill-rule="nonzero" />
    <path transform="matrix(1 0 0 1 -255 -225.6204)"  d="M674.2083 669.6162L680.8609 669.5968L684.97327 662.2597L680.52826 654.9473L674.34717 654.9653C 677.52106 650.928 682.9123 649.35803 687.75745 651.06024C 692.6026 652.76245 695.82733 657.3594 695.7786 662.4946C 695.73 667.6299 692.41864 672.1648 687.5421 673.77484C 682.6655 675.3849 677.305 673.713 674.20825 669.6163L674.20825 669.6163L674.2083 669.6162z" stroke="none" fill="#E6E6E6" fill-rule="nonzero" />
    <path transform="matrix(1 0 0 1 -255 -225.6204)"  d="M944 646.5896L256 646.5896C 255.44771 646.5896 255 646.1419 255 645.5896C 255 645.0373 255.44771 644.5896 256 644.5896L256 644.5896L944 644.5896C 944.5523 644.5896 945 645.0373 945 645.5896C 945 646.1419 944.5523 646.5896 944 646.5896z" stroke="none" fill="#3F3D56" fill-rule="nonzero" />
    <path d="M573.4862 197.96918C 573.4862 207.0819 570.2644 214.86006 563.82074 221.3037C 557.3771 227.74736 549.59894 230.9692 540.4862 230.96918C 531.37354 230.9692 523.59534 227.74736 517.1517 221.3037C 510.70807 214.86006 507.48624 207.0819 507.4862 197.96918C 507.48624 188.85648 510.70807 181.07831 517.1517 174.63466C 523.59534 168.19101 531.37354 164.96918 540.4862 164.96918C 549.59894 164.96918 557.3771 168.19101 563.82074 174.63466C 570.2644 181.07831 573.4862 188.85648 573.4862 197.96918C 573.4862 198.3532 573.47955 198.73709 573.4661 199.12086" stroke="none" fill="#2F2E41" fill-rule="nonzero" />
    <path d="M553.859 383.226L556.401 395.219L603.871 391.124L600.12 373.423L553.859 383.226L553.859 383.226" stroke="none" fill="#FFB8B8" fill-rule="nonzero" />
    <path transform="matrix(-0.2073084 -0.97827566 0.97827566 -0.2073084 108.71051 1320.9727)"  d="M789.1881 618.4967L827.7189 618.4967L827.7189 618.4967L827.7189 618.4967L827.7189 618.4967L827.7189 633.38354L827.7189 633.38354L827.7189 633.38354L827.7189 633.38354L804.07495 633.38354C 795.85315 633.38354 789.1881 626.7185 789.1881 618.4967L789.1881 618.4967L789.1881 618.4967z" stroke="none" fill="#2F2E41" fill-rule="nonzero" />
    <path d="M524.12 382.586L518.777 393.621L473.673 378.264L481.559 361.979L524.12 382.586L524.12 382.586" stroke="none" fill="#FFB8B8" fill-rule="nonzero" />
    <path transform="matrix(0.43578747 -0.9000496 0.9000496 0.43578747 -379.9408 824.86816)"  d="M771.0375 617.4556L794.68134 617.4556L794.68134 617.4556L794.68134 617.4556L794.68134 617.4556L794.68134 632.34247L794.68134 632.34247L794.68134 632.34247L794.68134 632.34247L756.1506 632.34247L756.1506 632.34247L756.1506 632.34247C 756.1506 628.3942 757.719 624.60767 760.51086 621.81586C 763.3027 619.02405 767.08923 617.4556 771.0375 617.4556z" stroke="none" fill="#2F2E41" fill-rule="nonzero" />
    <path transform="matrix(1 0 0 1 -255 -225.6204)"  d="M690.2593 586.41364C 693.38477 586.9956 696.60754 586.1632 699.06036 584.14056C 701.5132 582.11786 702.9441 579.1126 702.9681 575.9335L702.9681 575.9335L777.342 507.36237L758.872 493.0569L691.53455 565.0003C 686.07117 565.3211 681.7111 569.6774 681.3858 575.14056C 681.0604 580.60364 684.87256 585.4467 690.2593 586.41364z" stroke="none" fill="#FFB8B8" fill-rule="nonzero" />
    <path d="M560.9055 207.89832C 560.9055 214.68066 558.50757 220.46976 553.71173 225.26558C 548.9159 230.06143 543.12683 232.45935 536.3445 232.45935C 529.56213 232.45935 523.7731 230.06143 518.97723 225.26558C 514.1814 220.46976 511.78345 214.68066 511.78345 207.89832C 511.78345 201.11598 514.1814 195.3269 518.97723 190.53105C 523.7731 185.7352 529.56213 183.33728 536.3445 183.33728C 543.12683 183.33728 548.9159 185.7352 553.71173 190.53105C 558.50757 195.3269 560.9055 201.11598 560.9055 207.89832C 560.9055 208.18413 560.9005 208.46985 560.89056 208.75548" stroke="none" fill="#FFB8B8" fill-rule="nonzero" />
    <path transform="matrix(1 0 0 1 -255 -225.6204)"  d="M813.3861 577.8933C 796.1576 577.8938 775.4081 574.2649 762.60754 559.4163L762.60754 559.4163L762.3192 559.08185L762.61584 558.7537C 762.7125 558.6468 772.1295 547.8851 762.7267 528.69275L762.7267 528.69275L749.799 532.67017L736.9286 515.6814L744.0582 494.29224L773.2357 470.78833C 777.41644 467.43933 782.50635 465.42258 787.8463 464.99927C 797.5105 464.06494 806.9247 461.38376 815.631 457.08618C 819.61505 455.15082 824.00256 454.19162 828.4308 454.28784L828.4308 454.28784L829.0045 454.30396C 831.7259 454.38068 834.297 455.56915 836.11865 457.5924C 837.9403 459.61566 838.8534 462.29694 838.64514 465.01147C 836.6666 490.64136 833.1727 552.55493 843.43665 573.8728L843.43665 573.8728L843.7018 574.4236L843.1095 574.574C 833.35376 576.7689 823.3858 577.8821 813.3861 577.8933z" stroke="none" fill="#6C63FF" fill-rule="nonzero" />
    <path transform="matrix(1 0 0 1 -255 -225.6204)"  d="M765.9862 559.0896C 765.9862 559.0896 700.9862 553.0896 693.9862 572.0896C 686.9862 591.0896 694.9862 600.0896 706.9862 604.0896C 718.9862 608.0896 747.9862 613.0896 747.9862 613.0896L747.9862 613.0896L760.9862 597.0896L794.9862 599.0896C 794.9862 599.0896 832.87103 621.0628 843.34595 644.56335C 847.92456 654.92566 857.82806 661.9328 869.1234 662.802C 877.5214 663.3865 884.9862 660.2146 884.9862 647.0896C 884.9862 617.0896 842.9862 574.0896 842.9862 574.0896L842.9862 574.0896L765.9862 559.0896z" stroke="none" fill="#2F2E41" fill-rule="nonzero" />
    <path transform="matrix(1 0 0 1 -255 -225.6204)"  d="M716.4862 588.5896C 716.4862 588.5896 733.4862 583.5896 760.4862 596.5896" stroke="none" fill="#2F2E41" fill-rule="nonzero" />
    <path transform="matrix(1 0 0 1 -255 -225.6204)"  d="M766.84283 417.85547C 776.4347 423.71072 787.2483 427.2738 798.442 428.26736L798.442 428.26736L795.1112 424.27637C 797.53644 425.1731 800.0884 425.67984 802.6723 425.7778C 805.29565 425.85382 807.79974 424.68176 809.4218 422.61862C 810.74774 420.47427 810.94037 417.81674 809.9374 415.50363C 808.9223 413.23056 807.3424 411.25507 805.348 409.76514C 798.1679 404.08533 788.62036 402.37903 779.91736 405.2202C 776.97815 406.0986 774.3459 407.78714 772.32196 410.0924C 770.301 412.45126 769.60114 415.668 770.4594 418.65326" stroke="none" fill="#2F2E41" fill-rule="nonzero" />
    <path transform="matrix(1 0 0 1 -255 -225.6204)"  d="M795.3091 398.22406C 799.6733 388.09134 806.20557 379.03842 814.446 371.7027C 819.738 366.99994 825.91846 362.95963 832.8923 361.74C 839.8661 360.52036 847.72534 362.6098 852.0028 368.25116C 855.50055 372.86417 856.1549 379.0439 855.76953 384.82016C 855.38416 390.5964 854.0932 396.31668 854.21686 402.10443C 854.47314 414.10266 860.77936 425.1575 870.9768 431.4848C 881.17426 437.81213 893.8797 438.5536 904.74396 433.45544C 898.7224 436.7843 894.02997 442.05322 888.43915 446.06357C 882.8483 450.0739 875.47644 452.82367 869.12683 450.17368C 862.4087 447.3699 859.3272 439.7543 856.9208 432.88385L856.9208 432.88385L846.189 402.2443C 844.3647 397.03577 842.45 391.67273 838.72705 387.5989C 835.0041 383.5251 828.96246 381.0421 823.83777 383.0902C 819.9538 384.64246 817.42505 388.34775 815.20746 391.8942C 812.98987 395.44064 810.65045 399.21405 806.9039 401.07355C 803.1573 402.93304 797.60547 401.78824 796.3809 397.78885" stroke="none" fill="#2F2E41" fill-rule="nonzero" />
    <path transform="matrix(0.6978994 -0.71619576 0.71619576 0.6978994 -416.74744 524.13837)"  d="M802.919 543.3142L812.80133 543.3142L812.80133 589.90247L802.919 589.90247z" stroke="none" fill="#E6E6E6" fill-rule="nonzero" />
    <path transform="matrix(1 0 0 1 -255 -225.6204)"  d="M821.5101 579.9094C 817.70105 583.81836 817.782 590.07495 821.69086 593.88403C 825.5998 597.69305 831.8564 597.6121 835.66547 593.70325C 839.4745 589.7944 839.39355 583.5377 835.4847 579.72864C 831.57574 575.91956 825.31915 576.0005 821.5101 579.9094zM831.6211 589.76215C 829.98865 591.4374 827.30725 591.4721 825.632 589.83966C 823.9568 588.2072 823.92206 585.5258 825.5545 583.8505C 827.18695 582.1753 829.86835 582.14056 831.5436 583.773C 833.21875 585.4055 833.2534 588.0869 831.62103 589.76215z" stroke="none" fill="#E6E6E6" fill-rule="nonzero" />
    <path transform="matrix(1 0 0 1 -255 -225.6204)"  d="M784.4796 533.5489L789.17 538.26666L786.8898 546.3627L778.57605 548.3902L774.2181 544.00684C 773.60754 549.1059 776.30963 554.0282 780.9393 556.2506C 785.569 558.473 791.09973 557.50275 794.6965 553.83716C 798.2932 550.1716 799.15845 544.6235 796.8487 540.03674C 794.5389 535.45 789.5662 532.84174 784.4797 533.5488L784.4797 533.5488L784.4796 533.5489z" stroke="none" fill="#E6E6E6" fill-rule="nonzero" />
    <path transform="matrix(1 0 0 1 -255 -225.6204)"  d="M803.736 577.97925C 803.31226 577.97906 802.88885 577.95557 802.4677 577.90894C 797.38525 577.31946 793.37646 573.3103 792.78754 568.2278C 792.4323 565.11285 793.4227 561.9943 795.5101 559.6551C 797.5975 557.31586 800.58356 555.97815 803.7187 555.9778C 804.2093 555.98035 804.69916 556.0169 805.18475 556.08716L805.18475 556.08716L838.7633 520.342L835.2582 508.6574L852.86316 500.7658L857.797 512.82587C 861.19165 521.2149 858.68066 530.83746 851.61975 536.4982L851.61975 536.4982L814.65857 565.8991C 814.6975 566.2574 814.7176 566.61743 814.7186 566.9777C 814.71643 570.1062 813.3844 573.0863 811.0548 575.1745C 809.04877 576.98694 806.4395 577.9869 803.736 577.97925z" stroke="none" fill="#FFB8B8" fill-rule="nonzero" />
    <path transform="matrix(1 0 0 1 -255 -225.6204)"  d="M829.9862 459.08957C 832.3387 458.044 835.0158 458.0031 837.3992 458.9763C 839.7825 459.94946 841.6659 461.85254 842.6142 464.24588L842.6142 464.24588L859.9862 508.0896L832.9862 526.0896L829.9862 459.08957z" stroke="none" fill="#6C63FF" fill-rule="nonzero" />
    <path transform="matrix(1 0 0 1 -255 -225.6204)"  d="M703.4862 469.32727L703.4862 250.8827C 703.4665 236.93889 692.16766 225.64012 678.2239 225.6204L678.2239 225.6204L334.95386 225.6204C 321.01004 225.64015 309.71127 236.9389 309.69156 250.8827L309.69156 250.8827L309.69156 469.32727C 309.71127 483.2711 321.01004 494.56985 334.95386 494.58957L334.95386 494.58957L678.22394 494.58957C 692.1678 494.56985 703.46655 483.2711 703.4862 469.32727zM334.95386 491.61755C 322.6495 491.60254 312.6786 481.63162 312.6636 469.3273L312.6636 469.3273L312.6636 250.8827C 312.67856 238.57835 322.64948 228.60742 334.95386 228.59244L334.95386 228.59244L678.22394 228.59244C 690.5283 228.6074 700.4992 238.57834 700.5142 250.8827L700.5142 250.8827L700.5142 469.32727C 700.4992 481.63165 690.52826 491.60257 678.22394 491.61752z" stroke="none" fill="#3F3D56" fill-rule="nonzero" />
    <path transform="matrix(1 0 0 1 -255 -225.6204)"  d="M700.51416 264.92368L312.6636 264.92368C 312.1316 264.92535 311.63925 264.64252 311.37274 264.18204C 311.10626 263.7216 311.10626 263.15378 311.37274 262.69333C 311.63925 262.23285 312.1316 261.95 312.6636 261.9517L312.6636 261.9517L700.51416 261.9517C 701.33295 261.95428 701.9954 262.61884 701.9954 263.43768C 701.9954 264.25653 701.33295 264.92108 700.51416 264.92368z" stroke="none" fill="#3F3D56" fill-rule="nonzero" />
    <path d="M90.355995 20.80425C 90.355995 22.856014 89.630585 24.607304 88.17977 26.058117C 86.72896 27.508934 84.97767 28.234343 82.9259 28.23434C 80.874146 28.234343 79.12285 27.508934 77.672035 26.058117C 76.22122 24.607304 75.49582 22.856014 75.49581 20.80425C 75.49582 18.752487 76.22122 17.0012 77.672035 15.5503845C 79.12285 14.099569 80.874146 13.374161 82.9259 13.374161C 84.97767 13.374161 86.72896 14.099569 88.17977 15.5503845C 89.630585 17.0012 90.355995 18.752487 90.355995 20.80425C 90.355995 20.890713 90.35449 20.977148 90.35147 21.063557" stroke="none" fill="#6C63FF" fill-rule="nonzero" />
    <path d="M115.61829 20.80425C 115.6183 22.856014 114.89289 24.607304 113.44207 26.058117C 111.99126 27.508934 110.23997 28.234343 108.1882 28.23434C 106.136444 28.234343 104.385155 27.508934 102.93433 26.058117C 101.48352 24.607304 100.75811 22.856014 100.75811 20.80425C 100.75811 18.752487 101.48352 17.0012 102.93433 15.5503845C 104.385155 14.099569 106.136444 13.374161 108.1882 13.374161C 110.23997 13.374161 111.99126 14.099569 113.44207 15.5503845C 114.89289 17.0012 115.6183 18.752487 115.61829 20.80425C 115.6183 20.890713 115.61679 20.977148 115.61377 21.063557" stroke="none" fill="#6C63FF" fill-rule="nonzero" />
    <path d="M140.88058 20.80425C 140.88058 22.856014 140.15518 24.607304 138.70436 26.058117C 137.25354 27.508934 135.50226 28.234343 133.4505 28.23434C 131.39874 28.234343 129.64746 27.508934 128.19664 26.058117C 126.74583 24.607304 126.02042 22.856014 126.02041 20.80425C 126.02042 18.752487 126.74583 17.0012 128.19664 15.5503845C 129.64746 14.099569 131.39874 13.374161 133.4505 13.374161C 135.50226 13.374161 137.25354 14.099569 138.70436 15.5503845C 140.15518 17.0012 140.88058 18.752487 140.88058 20.80425C 140.88058 20.890713 140.87909 20.977148 140.87607 21.063557" stroke="none" fill="#6C63FF" fill-rule="nonzero" />
    <path transform="matrix(1 0 0 1 -255 -225.6204)"  d="M443.97867 424.85205C 443.7134 424.85214 443.459 424.7468 443.27148 424.55923C 443.08392 424.3717 442.97858 424.1173 442.97867 423.85205C 442.97867 413.4253 438.40787 407.60986 431.03336 401.60498C 430.75507 401.37982 430.61838 401.02307 430.675 400.6696C 430.73157 400.3161 430.97278 400.01987 431.30746 399.89282C 431.64212 399.76578 432.01917 399.8273 432.29605 400.0542C 440.12613 406.4292 444.97867 412.63428 444.97867 423.85205C 444.97876 424.11728 444.8734 424.3717 444.68585 424.55923C 444.49832 424.7468 444.2439 424.8521 443.97867 424.85205z" stroke="none" fill="#000000" fill-rule="nonzero" />
    <path transform="matrix(1 0 0 1 -255 -225.6204)"  d="M358.31656 424.85205C 358.0513 424.85214 357.7969 424.7468 357.60938 424.55923C 357.4218 424.3717 357.31647 424.1173 357.31656 423.85205C 357.31656 412.63428 362.1691 406.4292 369.99918 400.0542C 370.27606 399.8273 370.6531 399.76578 370.9878 399.89282C 371.32245 400.01987 371.56366 400.3161 371.62024 400.6696C 371.67685 401.02307 371.54016 401.37982 371.26187 401.60498C 363.88736 407.60986 359.31656 413.42627 359.31656 423.85205C 359.31665 424.11728 359.2113 424.3717 359.02374 424.55923C 358.8362 424.7468 358.5818 424.8521 358.31656 424.85205z" stroke="none" fill="#000000" fill-rule="nonzero" />
    <path transform="matrix(1 0 0 1 -255 -225.6204)"  d="M435.41324 356.32178C 434.99008 356.32193 434.61264 356.05573 434.47076 355.65707C 434.3289 355.2584 434.45328 354.8136 434.7814 354.5464C 442.36197 348.375 442.97867 339.6079 442.97867 329.62305C 442.97867 329.07077 443.4264 328.62305 443.97867 328.62305C 444.53094 328.62305 444.97867 329.07077 444.97867 329.62305C 444.97867 340.12793 444.3063 349.3706 436.0441 356.09717C 435.86612 356.24277 435.6432 356.32214 435.41324 356.32178z" stroke="none" fill="#000000" fill-rule="nonzero" />
    <path transform="matrix(1 0 0 1 -255 -225.6204)"  d="M366.88248 355.78662C 366.65253 355.787 366.42957 355.7076 366.25162 355.562C 357.98892 348.83496 357.31656 339.83496 357.31656 329.62302C 357.31656 329.07074 357.76428 328.62302 358.31656 328.62302C 358.86884 328.62302 359.31656 329.07074 359.31656 329.62302C 359.31656 339.65964 359.92007 347.82858 367.5143 354.0112C 367.84244 354.2784 367.96683 354.7232 367.82495 355.1219C 367.68307 355.52054 367.30563 355.78674 366.88248 355.7866L366.88248 355.7866L366.88248 355.78662z" stroke="none" fill="#000000" fill-rule="nonzero" />
    <path transform="matrix(1 0 0 1 -255 -225.6204)"  d="M456.82828 377.77246L435.41275 377.77246C 434.86047 377.77246 434.41275 377.32474 434.41275 376.77246C 434.41275 376.22018 434.86047 375.77246 435.41275 375.77246L435.41275 375.77246L456.82828 375.77246C 457.18555 375.77246 457.51566 375.96307 457.6943 376.27246C 457.87292 376.58185 457.87292 376.96307 457.6943 377.27246C 457.51566 377.58185 457.18555 377.77246 456.82828 377.77246z" stroke="none" fill="#000000" fill-rule="nonzero" />
    <path transform="matrix(1 0 0 1 -255 -225.6204)"  d="M366.883 377.77246L345.46744 377.77246C 344.91516 377.77246 344.46744 377.32474 344.46744 376.77246C 344.46744 376.22018 344.91516 375.77246 345.46744 375.77246L345.46744 375.77246L366.883 375.77246C 367.43527 375.77246 367.883 376.22018 367.883 376.77246C 367.883 377.32474 367.43527 377.77246 366.883 377.77246z" stroke="none" fill="#000000" fill-rule="nonzero" />
    <path transform="matrix(1 0 0 1 -255 -225.6204)"  d="M401.1476 420.56885C 400.88235 420.56894 400.62796 420.4636 400.44043 420.27603C 400.25287 420.0885 400.14752 419.8341 400.1476 419.56885L400.1476 419.56885L400.1476 351.0391C 400.1476 350.48682 400.59534 350.0391 401.1476 350.0391C 401.6999 350.0391 402.1476 350.48682 402.1476 351.0391L402.1476 351.0391L402.1476 419.56888C 402.14767 419.8341 402.04236 420.08847 401.8548 420.27603C 401.66724 420.46356 401.41287 420.5689 401.1476 420.56885z" stroke="none" fill="#000000" fill-rule="nonzero" />
    <path transform="matrix(1 0 0 1 -255 -225.6204)"  d="M401.1476 420.56885C 381.68057 420.54645 365.9051 404.77075 365.883 385.3037L365.883 385.3037L365.883 359.58643C 365.883 343.11816 379.3957 332.8877 401.14764 332.8877C 423.88885 332.8877 436.41278 342.36963 436.41278 359.58643L436.41278 359.58643L436.41278 385.3037C 436.39062 404.77094 420.61484 420.54672 401.1476 420.56885zM401.1476 334.8877C 385.06656 334.8877 367.88297 341.37598 367.88297 359.58643L367.88297 359.58643L367.88297 385.3037C 367.87476 397.1936 374.21323 408.1838 384.5088 414.1311C 394.80435 420.07843 407.49136 420.07843 417.78693 414.1311C 428.08252 408.1838 434.42096 397.1936 434.41275 385.3037L434.41275 385.3037L434.41275 359.58643C 434.41275 338.09668 413.571 334.8877 401.1476 334.8877z" stroke="none" fill="#000000" fill-rule="nonzero" />
    <path transform="matrix(1 0 0 1 -255 -225.6204)"  d="M380.651 339.06155C 380.24152 339.06158 379.87338 338.812 379.7218 338.43167C 379.1443 336.98608 378.81033 335.45474 378.73352 333.89993C 378.76984 321.5597 388.74887 311.5567 401.089 311.49075L401.089 311.49075L401.20374 311.49075C 413.5271 311.5495 423.503 321.52432 423.5631 333.8477C 423.51135 335.29413 423.2032 336.7199 422.65295 338.05862C 422.44025 338.5652 421.8587 338.80527 421.3506 338.59628C 420.84247 338.3873 420.5981 337.80753 420.80334 337.29788C 421.26004 336.1892 421.51755 335.0087 421.5641 333.81058C 421.49066 322.60205 412.40994 313.54053 401.2013 313.49075L401.2013 313.49075L401.09143 313.49075C 389.8695 313.5466 380.78653 322.63065 380.73206 333.85257C 380.80298 335.16956 381.08914 336.466 381.57922 337.69046C 381.70166 337.99847 381.66376 338.34714 381.4779 338.6216C 381.29208 338.89612 380.98245 339.06082 380.651 339.06155z" stroke="none" fill="#000000" fill-rule="nonzero" />
    <path transform="matrix(1 0 0 1 -255 -225.6204)"  d="M502.71045 333.62308L490.71045 333.62308C 486.84445 333.62308 483.71045 330.48907 483.71045 326.62308C 483.71045 322.75708 486.84445 319.62308 490.71045 319.62308L490.71045 319.62308L502.71045 319.62308C 506.57645 319.62308 509.71045 322.75708 509.71045 326.62308C 509.71045 330.48907 506.57645 333.62308 502.71045 333.62308z" stroke="none" fill="#CCCCCC" fill-rule="nonzero" />
    <path transform="matrix(1 0 0 1 -255 -225.6204)"  d="M584.71045 363.12308L572.71045 363.12308C 568.8445 363.12308 565.71045 359.98907 565.71045 356.12308C 565.71045 352.25708 568.8445 349.12308 572.71045 349.12308L572.71045 349.12308L584.71045 349.12308C 588.5764 349.12308 591.71045 352.25708 591.71045 356.12308C 591.71045 359.98907 588.5764 363.12308 584.71045 363.12308z" stroke="none" fill="#CCCCCC" fill-rule="nonzero" />
    <path transform="matrix(1 0 0 1 -255 -225.6204)"  d="M622.71045 363.12308L610.71045 363.12308C 606.8445 363.12308 603.71045 359.98907 603.71045 356.12308C 603.71045 352.25708 606.8445 349.12308 610.71045 349.12308L610.71045 349.12308L622.71045 349.12308C 626.5764 349.12308 629.71045 352.25708 629.71045 356.12308C 629.71045 359.98907 626.5764 363.12308 622.71045 363.12308z" stroke="none" fill="#CCCCCC" fill-rule="nonzero" />
    <path transform="matrix(1 0 0 1 -255 -225.6204)"  d="M660.71045 363.12308L648.71045 363.12308C 644.8445 363.12308 641.71045 359.98907 641.71045 356.12308C 641.71045 352.25708 644.8445 349.12308 648.71045 349.12308L648.71045 349.12308L660.71045 349.12308C 664.5764 349.12308 667.71045 352.25708 667.71045 356.12308C 667.71045 359.98907 664.5764 363.12308 660.71045 363.12308z" stroke="none" fill="#CCCCCC" fill-rule="nonzero" />
    <path transform="matrix(1 0 0 1 -255 -225.6204)"  d="M585.71045 334.12308L529.71045 334.12308C 525.8445 334.12308 522.71045 330.98907 522.71045 327.12308C 522.71045 323.25708 525.8445 320.12308 529.71045 320.12308L529.71045 320.12308L585.71045 320.12308C 589.5764 320.12308 592.71045 323.25708 592.71045 327.12308C 592.71045 330.98907 589.5764 334.12308 585.71045 334.12308z" stroke="none" fill="#CCCCCC" fill-rule="nonzero" />
    <path transform="matrix(1 0 0 1 -255 -225.6204)"  d="M546.71045 362.12308L490.71045 362.12308C 486.84445 362.12308 483.71045 358.98907 483.71045 355.12308C 483.71045 351.25708 486.84445 348.12308 490.71045 348.12308L490.71045 348.12308L546.71045 348.12308C 550.5764 348.12308 553.71045 351.25708 553.71045 355.12308C 553.71045 358.98907 550.5764 362.12308 546.71045 362.12308z" stroke="none" fill="#CCCCCC" fill-rule="nonzero" />
    <path transform="matrix(1 0 0 1 -255 -225.6204)"  d="M656.71045 334.12308L613.71045 334.12308C 609.8445 334.12308 606.71045 330.98907 606.71045 327.12308C 606.71045 323.25708 609.8445 320.12308 613.71045 320.12308L613.71045 320.12308L656.71045 320.12308C 660.5764 320.12308 663.71045 323.25708 663.71045 327.12308C 663.71045 330.98907 660.5764 334.12308 656.71045 334.12308z" stroke="none" fill="#CCCCCC" fill-rule="nonzero" />
    <path transform="matrix(1 0 0 1 -255 -225.6204)"  d="M502.71045 392.62308L490.71045 392.62308C 486.84445 392.62308 483.71045 389.48907 483.71045 385.62308C 483.71045 381.75708 486.84445 378.62308 490.71045 378.62308L490.71045 378.62308L502.71045 378.62308C 506.57645 378.62308 509.71045 381.75708 509.71045 385.62308C 509.71045 389.48907 506.57645 392.62308 502.71045 392.62308z" stroke="none" fill="#CCCCCC" fill-rule="nonzero" />
    <path transform="matrix(1 0 0 1 -255 -225.6204)"  d="M585.71045 393.12308L529.71045 393.12308C 525.8445 393.12308 522.71045 389.98907 522.71045 386.12308C 522.71045 382.25708 525.8445 379.12308 529.71045 379.12308L529.71045 379.12308L585.71045 379.12308C 589.5764 379.12308 592.71045 382.25708 592.71045 386.12308C 592.71045 389.98907 589.5764 393.12308 585.71045 393.12308z" stroke="none" fill="#CCCCCC" fill-rule="nonzero" />
    <path transform="matrix(1 0 0 1 -255 -225.6204)"  d="M656.71045 393.12308L613.71045 393.12308C 609.8445 393.12308 606.71045 389.98907 606.71045 386.12308C 606.71045 382.25708 609.8445 379.12308 613.71045 379.12308L613.71045 379.12308L656.71045 379.12308C 660.5764 379.12308 663.71045 382.25708 663.71045 386.12308C 663.71045 389.98907 660.5764 393.12308 656.71045 393.12308z" stroke="none" fill="#CCCCCC" fill-rule="nonzero" />
    <path transform="matrix(1 0 0 1 -255 -225.6204)"  d="M637.71045 416.62308C 637.7148 412.75888 640.84625 409.6274 644.71045 409.62308L644.71045 409.62308L656.71045 409.62308C 660.5764 409.62308 663.71045 412.75708 663.71045 416.62308C 663.71045 420.48907 660.5764 423.62308 656.71045 423.62308L656.71045 423.62308L644.71045 423.62308C 640.84625 423.61874 637.7148 420.48727 637.71045 416.62308z" stroke="none" fill="#CCCCCC" fill-rule="nonzero" />
    <path transform="matrix(1 0 0 1 -255 -225.6204)"  d="M554.71045 417.12308C 554.7148 413.25888 557.84625 410.1274 561.71045 410.12308L561.71045 410.12308L617.71045 410.12308C 621.5764 410.12308 624.71045 413.25708 624.71045 417.12308C 624.71045 420.98907 621.5764 424.12308 617.71045 424.12308L617.71045 424.12308L561.71045 424.12308C 557.84625 424.11874 554.7148 420.98727 554.71045 417.12308z" stroke="none" fill="#CCCCCC" fill-rule="nonzero" />
    <path transform="matrix(1 0 0 1 -255 -225.6204)"  d="M483.71045 417.12308C 483.71478 413.25888 486.84625 410.1274 490.71045 410.12308L490.71045 410.12308L533.71045 410.12308C 537.5764 410.12308 540.71045 413.25708 540.71045 417.12308C 540.71045 420.98907 537.5764 424.12308 533.71045 424.12308L533.71045 424.12308L490.71045 424.12308C 486.84625 424.11874 483.71478 420.98727 483.71045 417.12308z" stroke="none" fill="#CCCCCC" fill-rule="nonzero" />
</g>
</svg>